<svg width="220" height="220" viewBox="0 0 220 220" fill="none" xmlns="http://www.w3.org/2000/svg">
<path fill-rule="evenodd" clip-rule="evenodd" d="M13 106.5H206V113.5H13V106.5Z" fill="white"/>
<path fill-rule="evenodd" clip-rule="evenodd" d="M129 183.5L129 36.5L136 36.5L136 183.5L129 183.5Z" fill="white"/>
<path fill-rule="evenodd" clip-rule="evenodd" d="M181.997 164.447L78.0528 60.5025L83.0025 55.5528L186.947 159.497L181.997 164.447Z" fill="white"/>
<path fill-rule="evenodd" clip-rule="evenodd" d="M186.947 60.5025L83.0025 164.447L78.0528 159.497L181.997 55.5528L186.947 60.5025Z" fill="white"/>
<path fill-rule="evenodd" clip-rule="evenodd" d="M84.6616 125.714L178.58 87.7686L181.202 94.2589L87.2839 132.204L84.6616 125.714Z" fill="white"/>
<path fill-rule="evenodd" clip-rule="evenodd" d="M148.66 158.257L110.714 64.3383L117.204 61.7161L155.15 155.635L148.66 158.257Z" fill="white"/>
<path fill-rule="evenodd" clip-rule="evenodd" d="M178.186 132.998L84.9435 93.4188L87.6786 86.9753L180.921 126.554L178.186 132.998Z" fill="white"/>
<path fill-rule="evenodd" clip-rule="evenodd" d="M155.943 64.733L116.364 157.975L109.921 155.24L149.5 61.9979L155.943 64.733Z" fill="white"/>
</svg>
